<?xml version="1.0" encoding="utf-8"?>
<!-- Generator: Adobe Illustrator 22.0.1, SVG Export Plug-In . SVG Version: 6.00 Build 0)  -->
<svg version="1.1" id="Camada_1" xmlns="http://www.w3.org/2000/svg" xmlns:xlink="http://www.w3.org/1999/xlink" x="0px" y="0px"
	 viewBox="0 0 480 480" style="enable-background:new 0 0 480 480;" xml:space="preserve">
<style type="text/css">
	.st0{fill:#FFFFFF;}
</style>
<path class="st0" d="M240,0C107.5,0,0,107.5,0,240s107.5,240,240,240s240-107.5,240-240C479.9,107.5,372.5,0.1,240,0z M240,464
	C116.3,464,16,363.7,16,240S116.3,16,240,16s224,100.3,224,224C463.9,363.7,363.7,463.9,240,464z"/>
<path class="st0" d="M384,104H200c-4.4,0-8,3.6-8,8v112.1c-33-24.9-79.5-20.5-107.3,10s-27.8,77.2,0,107.8
	c27.8,30.5,74.3,34.9,107.3,10v8.1c0,4.4,3.6,8,8,8h184c4.4,0,8-3.6,8-8V112C392,107.6,388.4,104,384,104z M144,352
	c-35.3,0-64-28.7-64-64s28.7-64,64-64c18.4,0,36,8,48,21.9v84.2C180,344,162.4,352,144,352z M376,352H208V120h168V352z"/>
<path class="st0" d="M232,184h120c4.4,0,8-3.6,8-8v-32c0-4.4-3.6-8-8-8H232c-4.4,0-8,3.6-8,8v32C224,180.4,227.6,184,232,184z
	 M240,152h104v16H240V152z"/>
<path class="st0" d="M232,240h24c4.4,0,8-3.6,8-8v-24c0-4.4-3.6-8-8-8h-24c-4.4,0-8,3.6-8,8v24C224,236.4,227.6,240,232,240z
	 M240,216h8v8h-8V216z"/>
<path class="st0" d="M304,200h-24c-4.4,0-8,3.6-8,8v24c0,4.4,3.6,8,8,8h24c4.4,0,8-3.6,8-8v-24C312,203.6,308.4,200,304,200z
	 M296,224h-8v-8h8V224z"/>
<path class="st0" d="M352,200h-24c-4.4,0-8,3.6-8,8v24c0,4.4,3.6,8,8,8h24c4.4,0,8-3.6,8-8v-24C360,203.6,356.4,200,352,200z
	 M344,224h-8v-8h8V224z"/>
<path class="st0" d="M232,288h24c4.4,0,8-3.6,8-8v-24c0-4.4-3.6-8-8-8h-24c-4.4,0-8,3.6-8,8v24C224,284.4,227.6,288,232,288z
	 M240,264h8v8h-8V264z"/>
<path class="st0" d="M304,248h-24c-4.4,0-8,3.6-8,8v24c0,4.4,3.6,8,8,8h24c4.4,0,8-3.6,8-8v-24C312,251.6,308.4,248,304,248z
	 M296,272h-8v-8h8V272z"/>
<path class="st0" d="M352,248h-24c-4.4,0-8,3.6-8,8v24c0,4.4,3.6,8,8,8h24c4.4,0,8-3.6,8-8v-24C360,251.6,356.4,248,352,248z
	 M344,272h-8v-8h8V272z"/>
<path class="st0" d="M232,336h24c4.4,0,8-3.6,8-8v-24c0-4.4-3.6-8-8-8h-24c-4.4,0-8,3.6-8,8v24C224,332.4,227.6,336,232,336z
	 M240,312h8v8h-8V312z"/>
<path class="st0" d="M304,296h-24c-4.4,0-8,3.6-8,8v24c0,4.4,3.6,8,8,8h24c4.4,0,8-3.6,8-8v-24C312,299.6,308.4,296,304,296z
	 M296,320h-8v-8h8V320z"/>
<path class="st0" d="M352,296h-24c-4.4,0-8,3.6-8,8v24c0,4.4,3.6,8,8,8h24c4.4,0,8-3.6,8-8v-24C360,299.6,356.4,296,352,296z
	 M344,320h-8v-8h8V320z"/>
<path class="st0" d="M144,264c9.8,0,16,4.7,16,8h16c0-11.4-10.1-20.6-24-23.2V240h-16v8.8c-13.9,2.6-24,11.8-24,23.2
	c0,13.5,14.1,24,32,24c9.8,0,16,4.7,16,8s-6.2,8-16,8s-16-4.7-16-8h-16c0,11.4,10.1,20.6,24,23.2v8.8h16v-8.8
	c13.9-2.6,24-11.8,24-23.2c0-13.5-14.1-24-32-24c-9.8,0-16-4.7-16-8S134.2,264,144,264z"/>
</svg>
