<?xml version="1.0" encoding="utf-8"?>
<!-- Generator: Adobe Illustrator 22.0.1, SVG Export Plug-In . SVG Version: 6.00 Build 0)  -->
<svg version="1.1" id="Camada_1" xmlns="http://www.w3.org/2000/svg" xmlns:xlink="http://www.w3.org/1999/xlink" x="0px" y="0px"
	 viewBox="0 0 279.6 31.3" style="enable-background:new 0 0 279.6 31.3;" xml:space="preserve">
<style type="text/css">
	.st0{fill:#DB3838;}
	.st1{fill:#3453C4;}
</style>
<g>
	<path class="st0" d="M5.8,25.1V7H14c0.9,0,1.6,0.2,2.4,0.5c0.7,0.4,1.4,0.8,1.9,1.4s0.9,1.2,1.2,2c0.3,0.7,0.4,1.5,0.4,2.2
		c0,0.6-0.1,1.1-0.2,1.6c-0.1,0.5-0.3,1-0.6,1.5c-0.3,0.5-0.6,0.9-0.9,1.2c-0.4,0.4-0.8,0.7-1.2,0.9l4,6.8h-4.7l-3.5-5.9h-2.7v5.9
		C10.1,25.1,5.8,25.1,5.8,25.1z M10,15.6h3.8c0.5,0,0.9-0.2,1.3-0.7s0.5-1.1,0.5-1.8c0-0.8-0.2-1.3-0.6-1.8
		c-0.4-0.4-0.9-0.7-1.3-0.7H10C10,10.6,10,15.6,10,15.6z"/>
	<path class="st0" d="M27.9,25.4c-1.1,0-2.1-0.2-3-0.6c-0.9-0.4-1.7-0.9-2.3-1.5s-1.1-1.4-1.4-2.2s-0.5-1.6-0.5-2.5
		c0-1,0.2-1.9,0.5-2.8c0.3-0.9,0.8-1.6,1.4-2.3s1.4-1.2,2.3-1.5c0.9-0.4,1.9-0.6,3.1-0.6c1.1,0,2.2,0.2,3,0.6
		c0.9,0.4,1.6,0.9,2.3,1.5c0.6,0.6,1.1,1.4,1.4,2.2c0.3,0.8,0.5,1.7,0.5,2.6c0,0.2,0,0.5,0,0.7s0,0.4-0.1,0.6h-9.9
		c0.1,0.9,0.4,1.6,1,2.1s1.3,0.7,2,0.7c0.6,0,1.2-0.1,1.7-0.4c0.6-0.3,0.9-0.7,1.1-1.2l3.5,1c-0.5,1.1-1.3,1.9-2.5,2.6
		C30.8,25.1,29.5,25.4,27.9,25.4z M30.8,17.2c-0.1-0.9-0.4-1.5-0.9-2s-1.2-0.7-2-0.7s-1.5,0.3-2,0.8s-0.8,1.2-0.9,2L30.8,17.2
		L30.8,17.2z"/>
	<path class="st0" d="M39.3,25.1l-4.8-13.4h4.2l3,10.2l3-10.2h3.8l-4.7,13.4H39.3z"/>
	<path class="st0" d="M55.3,25.4c-1.1,0-2.1-0.2-3-0.6c-0.9-0.4-1.7-0.9-2.3-1.5s-1.1-1.4-1.4-2.2c-0.3-0.8-0.5-1.7-0.5-2.6
		c0-1,0.2-1.9,0.5-2.8c0.3-0.9,0.8-1.6,1.4-2.3s1.4-1.2,2.3-1.5c0.9-0.4,1.9-0.6,3.1-0.6c1.1,0,2.2,0.2,3,0.6
		c0.9,0.4,1.6,0.9,2.3,1.5c0.6,0.6,1.1,1.4,1.4,2.2c0.3,0.8,0.5,1.7,0.5,2.6c0,0.2,0,0.5,0,0.7s0,0.4-0.1,0.6h-9.9
		c0.1,0.9,0.4,1.6,1,2.1s1.3,0.7,2,0.7c0.6,0,1.2-0.1,1.7-0.4c0.6-0.3,0.9-0.7,1.1-1.2l3.5,1c-0.5,1.1-1.3,1.9-2.5,2.6
		C58.2,25.1,56.8,25.4,55.3,25.4z M58.1,17.2c-0.1-0.9-0.4-1.5-0.9-2s-1.2-0.7-2-0.7s-1.5,0.3-2,0.8s-0.8,1.2-0.9,2L58.1,17.2
		L58.1,17.2z"/>
	<path class="st0" d="M76.5,25.1h-4.1v-7.6c0-0.9-0.2-1.5-0.5-1.9S71.1,15,70.6,15c-0.3,0-0.6,0.1-0.9,0.2s-0.6,0.3-0.8,0.5
		c-0.3,0.2-0.5,0.5-0.7,0.8s-0.4,0.6-0.5,0.9v7.7h-4.1V11.7h3.7V14c0.5-0.8,1.2-1.4,2.1-1.9c0.9-0.4,1.9-0.7,3.1-0.7
		c0.9,0,1.6,0.2,2.1,0.5s0.9,0.7,1.2,1.2c0.3,0.5,0.5,1.1,0.6,1.7s0.1,1.2,0.1,1.7L76.5,25.1L76.5,25.1z"/>
	<path class="st0" d="M84,25.4c-0.9,0-1.8-0.2-2.5-0.5c-0.8-0.3-1.4-0.8-2-1.5c-0.6-0.6-1-1.4-1.3-2.2c-0.3-0.8-0.5-1.8-0.5-2.8
		s0.1-1.9,0.4-2.7c0.3-0.9,0.7-1.6,1.2-2.2s1.2-1.1,1.9-1.5c0.7-0.4,1.5-0.5,2.4-0.5s1.8,0.2,2.5,0.7c0.8,0.4,1.3,1,1.8,1.8V6.5H92
		v14c0,0.4,0.1,0.7,0.2,0.9c0.1,0.2,0.4,0.3,0.7,0.3v3.5c-0.4,0.1-0.7,0.1-1,0.2c-0.3,0-0.5,0-0.8,0c-0.7,0-1.3-0.1-1.7-0.4
		c-0.4-0.3-0.7-0.7-0.8-1.3L88.5,23c-0.5,0.8-1.1,1.5-1.9,1.9C85.8,25.2,85,25.4,84,25.4z M85.1,21.9c0.6,0,1.1-0.2,1.6-0.5
		s0.9-0.8,1.2-1.4v-2.8c-0.3-0.7-0.7-1.2-1.2-1.7c-0.6-0.4-1.2-0.7-1.8-0.7c-0.4,0-0.8,0.1-1.2,0.3c-0.4,0.2-0.7,0.5-1,0.8
		c-0.3,0.3-0.5,0.7-0.6,1.1s-0.2,0.9-0.2,1.4s0.1,1,0.2,1.4c0.2,0.4,0.4,0.8,0.7,1.1c0.3,0.3,0.6,0.5,1,0.7
		C84.2,21.9,84.7,21.9,85.1,21.9z"/>
	<path class="st0" d="M100.9,25.4c-1.1,0-2.1-0.2-3-0.6c-0.9-0.4-1.7-0.9-2.3-1.5c-0.6-0.6-1.1-1.4-1.4-2.2s-0.5-1.7-0.5-2.6
		c0-1,0.2-1.9,0.5-2.8c0.3-0.9,0.8-1.6,1.4-2.3c0.6-0.6,1.4-1.2,2.3-1.5c0.9-0.4,1.9-0.6,3.1-0.6c1.1,0,2.2,0.2,3,0.6
		c0.9,0.4,1.6,0.9,2.3,1.5c0.6,0.6,1.1,1.4,1.4,2.2c0.3,0.8,0.5,1.7,0.5,2.6c0,0.2,0,0.5,0,0.7s0,0.4-0.1,0.6h-9.9
		c0.1,0.9,0.4,1.6,1,2.1s1.3,0.7,2,0.7c0.6,0,1.2-0.1,1.7-0.4c0.6-0.3,0.9-0.7,1.1-1.2l3.5,1c-0.5,1.1-1.3,1.9-2.5,2.6
		C103.8,25.1,102.4,25.4,100.9,25.4z M103.7,17.2c-0.1-0.9-0.4-1.5-0.9-2s-1.2-0.7-2-0.7s-1.5,0.3-2,0.8s-0.8,1.2-0.9,2L103.7,17.2
		L103.7,17.2z"/>
	<path class="st0" d="M114.7,25.4c-0.9,0-1.8-0.2-2.5-0.5c-0.8-0.3-1.4-0.8-2-1.5c-0.6-0.6-1-1.4-1.3-2.2c-0.3-0.8-0.5-1.8-0.5-2.8
		s0.1-1.9,0.4-2.7c0.3-0.9,0.7-1.6,1.2-2.2s1.2-1.1,1.9-1.5c0.7-0.4,1.5-0.5,2.4-0.5s1.8,0.2,2.5,0.7c0.8,0.4,1.3,1,1.8,1.8V6.5h4.1
		v14c0,0.4,0.1,0.7,0.2,0.9c0.1,0.2,0.4,0.3,0.7,0.3v3.5c-0.4,0.1-0.7,0.1-1,0.2c-0.3,0-0.5,0-0.8,0c-0.7,0-1.3-0.1-1.7-0.4
		c-0.4-0.3-0.7-0.7-0.8-1.3l-0.1-0.7c-0.5,0.8-1.1,1.5-1.9,1.9C116.5,25.2,115.6,25.4,114.7,25.4z M115.8,21.9
		c0.6,0,1.1-0.2,1.6-0.5s0.9-0.8,1.2-1.4v-2.8c-0.3-0.7-0.7-1.2-1.2-1.7c-0.6-0.4-1.2-0.7-1.8-0.7c-0.4,0-0.8,0.1-1.2,0.3
		c-0.4,0.2-0.7,0.5-1,0.8c-0.3,0.3-0.5,0.7-0.6,1.1s-0.2,0.9-0.2,1.4s0.1,1,0.2,1.4c0.2,0.4,0.4,0.8,0.7,1.1c0.3,0.3,0.6,0.5,1,0.7
		C114.9,21.9,115.4,21.9,115.8,21.9z"/>
	<path class="st0" d="M131.5,25.4c-1.1,0-2.2-0.2-3.1-0.6c-0.9-0.4-1.7-0.9-2.3-1.5s-1.1-1.4-1.4-2.2c-0.3-0.8-0.5-1.7-0.5-2.7
		c0-0.9,0.2-1.8,0.5-2.7c0.3-0.8,0.8-1.6,1.4-2.2c0.6-0.6,1.4-1.2,2.3-1.5c0.9-0.4,1.9-0.6,3.1-0.6c1.1,0,2.2,0.2,3,0.6
		c0.9,0.4,1.6,0.9,2.3,1.5c0.6,0.6,1.1,1.4,1.4,2.2c0.3,0.8,0.5,1.7,0.5,2.7c0,0.9-0.2,1.8-0.5,2.7c-0.3,0.8-0.8,1.6-1.4,2.2
		c-0.6,0.6-1.4,1.1-2.3,1.5C133.7,25.2,132.7,25.4,131.5,25.4z M128.5,18.4c0,1.1,0.3,1.9,0.8,2.5c0.6,0.6,1.3,1,2.2,1
		c0.4,0,0.8-0.1,1.2-0.3c0.4-0.2,0.7-0.4,0.9-0.7c0.3-0.3,0.5-0.7,0.6-1.1c0.2-0.4,0.2-0.9,0.2-1.4c0-1.1-0.3-1.9-0.8-2.5
		c-0.6-0.6-1.3-1-2.1-1c-0.4,0-0.8,0.1-1.2,0.3c-0.4,0.2-0.7,0.4-0.9,0.7c-0.3,0.3-0.5,0.7-0.6,1.1
		C128.6,17.4,128.5,17.9,128.5,18.4z"/>
	<path class="st0" d="M148.5,15.2c-1,0-1.9,0.2-2.7,0.5s-1.4,0.8-1.7,1.4v8.1H140V11.7h3.8v2.7c0.5-0.9,1.1-1.6,1.8-2.1
		s1.5-0.8,2.3-0.8c0.2,0,0.3,0,0.4,0c0.1,0,0.2,0,0.3,0v3.7H148.5z"/>
</g>
<g>
	<polygon class="st1" points="151.8,9.3 157.1,9.3 157.1,25.3 161.6,25.3 161.6,9.3 167,9.3 167,5.5 151.8,5.5 	"/>
	<path class="st1" d="M180.9,11.7h-4.3v8.1c0,0.3,0,0.7-0.1,0.9c-0.3,0.7-0.9,1.5-2.1,1.5c-1.5,0-2.1-1.2-2.1-3.2v-7.3H168v8
		c0,4.2,2,6,4.8,6c2.5,0,3.7-1.4,4.3-2.2h0.1l0.2,1.9h3.7c-0.1-1.1-0.1-2.6-0.1-4.4L180.9,11.7L180.9,11.7z"/>
	<path class="st1" d="M205,11.4c-4.4,0-7.3,2.8-7.3,7.2s3.1,7,7.1,7c3.7,0,7.2-2.3,7.2-7.3C211.9,14.3,209.2,11.4,205,11.4z
		 M204.9,22.6c-1.8,0-2.8-1.8-2.8-4.1c0-2,0.8-4.1,2.8-4.1c1.9,0,2.7,2.1,2.7,4.1C207.6,21,206.5,22.6,204.9,22.6z"/>
	<path class="st1" d="M196.4,21.3V5.5h-4.2v7.4h-0.1c-0.6-0.9-1.9-1.5-3.6-1.5c-3.3,0-6.1,2.7-6.1,7.3c0,4.2,2.6,7,5.8,7
		c1.8,0,3.4-0.8,4.3-2.3h0.1l0.2,2h3.8C196.5,24.4,196.4,22.8,196.4,21.3z M191.9,19.3c0,0.4,0,0.7-0.1,1c-0.3,1.2-1.2,2-2.5,2
		c-1.8,0-2.9-1.5-2.9-3.8c0-2.2,1-3.9,2.9-3.9c1.3,0,2.2,0.9,2.5,2.1c0,0.2,0.1,0.5,0.1,0.8V19.3z"/>
</g>
<g>
	<polygon class="st0" points="213.5,25.4 218,25.4 218,17.4 225.1,17.4 225.1,13.8 218,13.8 218,9.2 225.6,9.2 225.6,5.5 213.5,5.5 
			"/>
	<path class="st0" d="M233.5,11.4c-4.4,0-7.3,2.8-7.3,7.2s3.1,7,7.1,7c3.7,0,7.2-2.3,7.2-7.3C240.5,14.3,237.7,11.4,233.5,11.4z
		 M233.7,22.6c-1.8,0-2.8-1.8-2.8-4.1c0-2,0.8-4.1,2.8-4.1c1.9,0,2.7,2.1,2.7,4.1C236.4,21,235.4,22.6,233.7,22.6z"/>
	<path class="st0" d="M245.9,14.2h-0.1l-0.1-2.5H242c0.1,1.2,0.1,2.5,0.1,4.5v9.2h4.2v-6.9c0-0.3,0-0.7,0.1-0.9
		c0.3-1.3,1.3-2.1,2.9-2.1c0.5,0,0.8,0.1,1.1,0.1v-4c-0.3-0.1-0.5-0.1-0.9-0.1C248.3,11.4,246.6,12.2,245.9,14.2z"/>
	<path class="st0" d="M274.4,18.2c0-3.4-1.7-6.8-6.1-6.8c-4.7,0-6.9,3.8-6.9,7.3c0,4.3,2.7,6.9,7.3,6.9c1.8,0,3.5-0.3,4.9-0.8
		l-0.6-2.9c-1.1,0.4-2.3,0.6-3.8,0.6c-2,0-3.7-0.8-3.9-2.6h8.8C274.3,19.6,274.4,18.9,274.4,18.2z M265.5,17
		c0.1-1.1,0.8-2.8,2.6-2.8c2,0,2.4,1.7,2.4,2.8H265.5z"/>
	<path class="st0" d="M257.5,7.8l-4.2,0.9v3h-1.8v3.1h1.8v5.6c0,1.9,0.4,3.2,1.2,4c0.7,0.7,1.8,1.2,3.2,1.2c1.2,0,2.2-0.1,2.8-0.4
		V22c-0.3,0.1-0.7,0.1-1.3,0.1c-1.3,0-1.7-0.8-1.7-2.4v-4.9h3v-3.1h-3V7.8z"/>
</g>
</svg>
