<?xml version="1.0" encoding="utf-8"?>
<!-- Generator: Adobe Illustrator 24.1.0, SVG Export Plug-In . SVG Version: 6.00 Build 0)  -->
<svg version="1.1" id="Layer_1" xmlns="http://www.w3.org/2000/svg" xmlns:xlink="http://www.w3.org/1999/xlink" x="0px" y="0px"
	 viewBox="0 0 239 79.6" style="enable-background:new 0 0 239 79.6;" xml:space="preserve">
<style type="text/css">
	.st0{fill:#3453C4;}
	.st1{fill:#DB3838;}
	.st2{fill:none;stroke:#3453C6;stroke-width:6;stroke-miterlimit:10;}
	.st3{fill:#3453C6;}
	.st4{fill-rule:evenodd;clip-rule:evenodd;fill:#DB3838;}
</style>
<desc>Created with sketchtool.</desc>
<g>
	<g>
		<polygon class="st0" points="41.1,47 49.3,47 49.3,71.8 56.2,71.8 56.2,47 64.6,47 64.6,41.2 41.1,41.2 		"/>
		<path class="st0" d="M86,50.8h-6.6v12.5c0,0.5,0,1-0.2,1.4c-0.4,1-1.5,2.3-3.3,2.3c-2.3,0-3.3-1.9-3.3-4.9V50.8H66v12.4
			c0,6.5,3.2,9.2,7.4,9.2c3.8,0,5.8-2.2,6.6-3.4h0.1l0.3,3h5.7c-0.1-1.8-0.2-4-0.2-6.8L86,50.8L86,50.8z"/>
		<path class="st0" d="M123.2,50.3c-6.8,0-11.3,4.3-11.3,11.2c0,6.8,4.7,10.9,10.9,10.9c5.6,0,11.1-3.5,11.1-11.3
			C134,54.7,129.6,50.3,123.2,50.3z M123,67.6c-2.8,0-4.3-2.7-4.3-6.3c0-3.1,1.2-6.3,4.3-6.3c3,0,4.2,3.2,4.2,6.3
			C127.2,65.1,125.6,67.6,123,67.6z"/>
		<path class="st0" d="M110,65.5V41.2h-6.5v11.4h-0.1c-1-1.5-3-2.4-5.6-2.4c-5,0-9.5,4.1-9.4,11.2c0,6.6,4,10.8,9,10.8
			c2.7,0,5.3-1.2,6.6-3.6h0.1l0.3,3.1h5.8C110.1,70.4,110,67.9,110,65.5z M103,62.4c0,0.6,0,1-0.2,1.5c-0.4,1.9-1.9,3.2-3.8,3.2
			c-2.7,0-4.5-2.2-4.5-5.8c0-3.3,1.6-6,4.5-6c2,0,3.4,1.5,3.8,3.2c0,0.3,0.1,0.8,0.1,1.2L103,62.4L103,62.4z"/>
	</g>
	<g>
		<polygon class="st1" points="136.3,71.8 143.3,71.8 143.3,59.5 154.3,59.5 154.3,53.9 143.3,53.9 143.3,46.9 155,46.9 155,41.2 
			136.3,41.2 		"/>
		<path class="st1" d="M167.3,50.3c-6.8,0-11.3,4.3-11.3,11.2c0,6.8,4.7,10.9,10.9,10.9c5.6,0,11.1-3.5,11.1-11.3
			C178.1,54.7,173.7,50.3,167.3,50.3z M167.5,67.6c-2.8,0-4.3-2.7-4.3-6.3c0-3.1,1.2-6.3,4.3-6.3c3,0,4.2,3.2,4.2,6.3
			C171.7,65.1,170.1,67.6,167.5,67.6z"/>
		<path class="st1" d="M186.4,54.6h-0.2l-0.2-3.9h-5.6c0.1,1.8,0.2,3.8,0.2,6.9v14.1h6.5V61.2c0-0.5,0-1,0.1-1.5
			c0.4-2,2.1-3.3,4.5-3.3c0.7,0,1.3,0.1,1.8,0.2v-6.2c-0.5-0.1-0.8-0.1-1.4-0.1C190,50.3,187.4,51.6,186.4,54.6z"/>
		<path class="st1" d="M230.4,60.8c0-5.2-2.6-10.5-9.4-10.5c-7.3,0-10.7,5.9-10.7,11.3c0,6.6,4.1,10.7,11.3,10.7
			c2.8,0,5.5-0.4,7.6-1.3l-0.9-4.4c-1.8,0.6-3.6,0.9-5.8,0.9c-3.1,0-5.7-1.3-5.9-4h13.6C230.2,62.9,230.4,61.9,230.4,60.8z
			 M216.5,58.9c0.2-1.8,1.3-4.3,4.1-4.3c3,0,3.7,2.7,3.7,4.3H216.5z"/>
		<path class="st1" d="M204.3,44.7l-6.4,1.5v4.6h-2.8v4.8h2.8v8.6c0,3,0.6,5,1.8,6.2c1,1.1,2.8,1.8,4.9,1.8c1.8,0,3.4-0.2,4.3-0.6
			v-4.9c-0.5,0.1-1.1,0.2-1.9,0.2c-2,0-2.6-1.2-2.6-3.7v-7.6h4.7v-4.8h-4.7v-6.1H204.3z"/>
	</g>
	<g>
		<path class="st2" d="M13.8,63.5"/>
	</g>
	<g>
		<path class="st3" d="M13.7,57.9c-0.6,0-1.1-0.5-1.1-1.1c0-6.2,5.1-11.3,11.3-11.3c3.7,0,7.2,1.8,9.3,4.9c0.3,0.5,0.2,1.2-0.3,1.5
			s-1.2,0.2-1.5-0.3c-1.7-2.5-4.5-3.9-7.5-3.9c-5,0-9.1,4.1-9.1,9.1C14.7,57.4,14.2,57.9,13.7,57.9z"/>
	</g>
	<g>
		<path class="st3" d="M24,68c-4,0-7.6-2-9.7-5.4C14,62,14.2,61.3,14.7,61s1.2-0.1,1.5,0.4c1.7,2.8,4.6,4.4,7.8,4.4
			c2.9,0,5.5-1.3,7.3-3.6c0.4-0.5,1-0.6,1.5-0.2c0.5,0.4,0.6,1,0.2,1.5C30.8,66.3,27.5,68,24,68z"/>
	</g>
	<g>
		<path class="st3" d="M23.9,71.8c-5.8,0-11.1-3.3-13.7-8.5c-0.3-0.5,0-1.2,0.5-1.5s1.2,0,1.5,0.5c2.2,4.5,6.7,7.3,11.8,7.3
			c4.2,0,8.1-2,10.6-5.4c0.4-0.5,1-0.6,1.5-0.2s0.6,1,0.2,1.5C33.4,69.5,28.8,71.8,23.9,71.8z"/>
	</g>
	<g>
		<path class="st3" d="M9.8,58.8c-0.6,0-1-0.4-1.1-1c0-0.4-0.1-0.9-0.1-1.3c0-8.4,6.9-15.3,15.3-15.3c5.3,0,10.2,2.7,13,7.3v0.1
			c0.3,0.5,0.1,1.2-0.4,1.5s-1.2,0.1-1.5-0.4l0,0c-2.4-3.9-6.6-6.3-11.2-6.3c-7.2,0-13.1,5.9-13.1,13.1c0,0.4,0,0.8,0.1,1.2
			C10.9,58.3,10.4,58.8,9.8,58.8L9.8,58.8z"/>
	</g>
	<g>
		<circle class="st4" cx="23.9" cy="56.8" r="6.5"/>
	</g>
</g>
<g>
	<path class="st0" d="M65.7,17.1c0,4.1-3.1,6.6-8,6.6h-3.1v4.7h-5.1v-18h8.2C62.6,10.5,65.7,13,65.7,17.1z M60.6,17.1
		c0-1.7-1.1-2.6-3.2-2.6h-2.8v5.3h2.8C59.5,19.7,60.6,18.7,60.6,17.1z"/>
	<path class="st0" d="M79.3,24.9h-7.6l-1.4,3.5h-5.2l7.9-18h5l8,18h-5.3L79.3,24.9z M77.8,21.2l-2.3-5.8l-2.3,5.8H77.8z"/>
	<path class="st0" d="M95.3,23.7h-2.8v4.8h-5.1v-18h8.2c4.9,0,8,2.5,8,6.7c0,2.6-1.3,4.6-3.5,5.7l3.9,5.6h-5.4L95.3,23.7z
		 M95.4,14.5h-2.8v5.3h2.8c2.1,0,3.2-1,3.2-2.6C98.6,15.4,97.5,14.5,95.4,14.5z"/>
	<path class="st0" d="M105.6,19.4c0-5.5,4.2-9.3,9.9-9.3c3.3,0,6,1.2,7.7,3.4l-3.2,2.9c-1.1-1.4-2.5-2.1-4.2-2.1c-3,0-5,2.1-5,5.1
		s2.1,5.1,5,5.1c1.7,0,3.1-0.7,4.2-2.1l3.2,2.9c-1.7,2.2-4.4,3.4-7.7,3.4C109.8,28.8,105.6,24.9,105.6,19.4z"/>
	<path class="st0" d="M139.9,24.5v3.9h-14.4v-18h14.1v3.9h-9.1v3h8v3.8h-8v3.3h9.4V24.5z"/>
	<path class="st0" d="M142.7,10.5h5.1v18h-5.1V10.5z"/>
	<path class="st0" d="M159.3,23.7h-2.8v4.8h-5.1v-18h8.2c4.9,0,8,2.5,8,6.7c0,2.6-1.3,4.6-3.5,5.7l3.9,5.6h-5.4L159.3,23.7z
		 M159.3,14.5h-2.8v5.3h2.8c2.1,0,3.2-1,3.2-2.6C162.5,15.4,161.4,14.5,159.3,14.5z"/>
	<path class="st0" d="M169.5,19.4c0-5.4,4.2-9.3,10-9.3s10,4,10,9.3c0,5.4-4.2,9.3-10,9.3C173.7,28.8,169.5,24.8,169.5,19.4z
		 M184.3,19.4c0-3.1-2.1-5.1-4.9-5.1c-2.7,0-4.9,2-4.9,5.1s2.1,5.1,4.9,5.1C182.2,24.6,184.3,22.5,184.3,19.4z"/>
</g>
</svg>
